# Blender v2.69 (sub 0) OBJ File: ''
# www.blender.org
o crate1
v 0.500000 -0.500000 -0.100000
v 0.500000 0.500000 -0.100000
v -0.500000 0.500000 -0.100000
v -0.500000 -0.500000 -0.100000
v -0.500000 -0.500000 -1.100000
v -0.500000 0.500000 -1.100000
v 0.500000 0.500000 -1.100000
v 0.500000 -0.500000 -1.100000
vt 1.000000 0.000000
vt 1.000000 1.000000
vt 0.000000 1.000000
vt 0.000000 0.000000
vn 0.000000 -0.000000 1.000000
vn 0.000000 0.000000 -1.000000
vn -1.000000 -0.000000 0.000000
vn 1.000000 -0.000000 0.000000
vn 0.000000 1.000000 0.000000
vn 0.000000 -1.000000 -0.000000
s off
f 1/1/1 2/2/1 3/3/1
f 5/1/2 6/2/2 7/3/2
f 4/1/3 3/2/3 6/3/3
f 2/3/4 1/4/4 8/1/4
f 2/1/5 7/2/5 6/3/5
f 8/1/6 1/2/6 4/3/6
f 4/4/1 1/1/1 3/3/1
f 8/4/2 5/1/2 7/3/2
f 5/4/3 4/1/3 6/3/3
f 7/2/4 2/3/4 8/1/4
f 3/4/5 2/1/5 6/3/5
f 5/4/6 8/1/6 4/3/6
