# Blender v2.69 (sub 0) OBJ File: ''
# www.blender.org
o Cube
v 1.000000 -1.000000 -1.000000
v 1.000000 -1.000000 1.000000
v -1.000000 -1.000000 1.000000
v -1.000000 -1.000000 -1.000000
v 1.000000 1.000000 -0.999999
v 0.999999 1.000000 1.000001
v -1.000000 1.000000 1.000000
v -1.000000 1.000000 -1.000000
vt 0.500865 0.874934
vt 0.250909 0.874588
vt 0.501211 0.624978
vt 0.501904 0.125065
vt 0.501557 0.375021
vt 0.251947 0.124719
vt 0.751167 0.625324
vt 0.751513 0.375367
vt 1.001123 0.625669
vt 0.001298 0.624286
vt 0.001644 0.374329
vt 0.251254 0.624632
vt 0.251600 0.374675
vt 1.001469 0.375713
vn 0.000000 -1.000000 0.000000
vn 0.000000 1.000000 0.000000
vn 1.000000 -0.000000 0.000000
vn 0.000000 -0.000000 1.000000
vn -1.000000 -0.000000 -0.000000
vn 0.000000 0.000000 -1.000000
vn 1.000000 0.000000 0.000001
s off
f 1/1/1 2/2/1 4/3/1
f 5/4/2 8/5/2 6/6/2
f 1/7/3 5/8/3 2/9/3
f 2/10/4 6/11/4 3/12/4
f 3/12/5 7/13/5 4/3/5
f 5/8/6 1/7/6 8/5/6
f 2/2/1 3/12/1 4/3/1
f 8/5/2 7/13/2 6/6/2
f 5/8/7 6/14/7 2/9/7
f 6/11/4 7/13/4 3/12/4
f 7/13/5 8/5/5 4/3/5
f 1/7/6 4/3/6 8/5/6
