# Blender v2.69 (sub 0) OBJ File: ''
# www.blender.org
o Bullet_Bullet_UV
v -0.500000 -0.000002 -0.389925
v -0.249999 -0.413350 0.688360
v -0.499999 -0.000001 0.688360
v -0.249999 0.413347 0.688360
v -0.250000 0.413347 -0.389925
v -0.203500 -0.336468 -0.389925
v -0.250000 -0.413351 -0.389925
v 0.250000 -0.413351 -0.389926
v 0.500001 -0.000001 0.688359
v 0.250001 -0.413350 0.688359
v 0.407000 -0.000002 -0.389926
v 0.500000 -0.000002 -0.389926
v 0.250000 0.413347 -0.389926
v 0.250001 0.413347 0.688359
v -0.203500 0.336464 -0.389925
v -0.407000 -0.000002 -0.389925
v 0.203501 -0.336468 0.611453
v 0.203500 -0.336468 -0.389926
v -0.406999 -0.000002 0.611453
v 0.203500 0.336464 -0.389926
v 0.203501 0.336465 0.611453
v -0.203499 -0.336468 0.611453
v -0.203499 0.336465 0.611453
v 0.407001 -0.000002 0.611452
v -0.223972 -0.370316 -0.238439
v 0.447944 -0.000002 -0.238440
v -0.447944 -0.000002 -0.238439
v -0.223973 -0.370316 -0.546258
v 0.223972 -0.370316 -0.238440
v 0.223972 0.370313 -0.238440
v -0.223972 0.370313 -0.238439
v -0.223973 0.370313 -0.546258
v 0.447944 -0.000002 -0.546259
v -0.447945 -0.000002 -0.546257
v 0.143879 -0.237892 -0.811641
v 0.223972 -0.370316 -0.546258
v -0.287760 -0.000002 -0.811640
v 0.223972 0.370313 -0.546258
v 0.143879 0.237888 -0.811641
v -0.143881 -0.237892 -0.811640
v -0.143881 0.237888 -0.811640
v 0.287759 -0.000002 -0.811641
vt 0.822405 0.986778
vt 0.659982 0.564826
vt 0.822405 0.564826
vt 0.984828 0.564826
vt 0.984828 0.986778
vt 0.646137 0.220677
vt 0.573935 0.134845
vt 0.585258 0.115232
vt 0.659982 0.986778
vt 0.463502 0.115232
vt 0.497558 0.986778
vt 0.497558 0.564826
vt 0.425270 0.220677
vt 0.402623 0.220677
vt 0.463502 0.326121
vt 0.573935 0.306509
vt 0.585258 0.326121
vt 0.840335 0.249196
vt 0.596700 0.389859
vt 0.677911 0.249196
vt 0.921546 0.389859
vt 0.677911 0.530522
vt 0.840335 0.530522
vt 0.623490 0.220677
vt 0.257431 0.323679
vt 0.356540 0.029932
vt 0.356540 0.323679
vt 0.158321 0.323679
vt 0.158321 0.029932
vt 0.474825 0.306509
vt 0.059211 0.323679
vt 0.059211 0.029932
vt 0.474825 0.134845
vt 0.257431 0.029932
vt 0.690419 0.011004
vt 0.884991 0.123340
vt 0.625561 0.123340
vt 0.820134 0.011004
vt 0.820134 0.235677
vt 0.690419 0.235677
vt 0.104237 0.355883
vt 0.352351 0.499131
vt 0.021532 0.499131
vt 0.319264 0.708269
vt 0.309467 0.826155
vt 0.469145 0.733179
vt 0.269646 0.642380
vt 0.104237 0.642380
vt 0.165405 0.706215
vt 0.014704 0.732971
vt 0.036853 0.857720
vt 0.448524 0.857249
vt 0.269646 0.355883
vt 0.176165 0.825342
vt 0.390544 0.966520
vt 0.192512 0.939398
vt 0.294391 0.940742
vt 0.096439 0.966520
vt 0.434544 0.360655
vt 0.579554 0.444376
vt 0.386208 0.444376
vt 0.531217 0.360655
vt 0.531217 0.528098
vt 0.434544 0.528098
vn -0.855670 -0.517522 0.000001
vn -0.855670 0.517523 0.000001
vn 0.000000 0.000000 -1.000000
vn -0.855670 -0.517523 0.000001
vn -0.000002 0.000001 -1.000000
vn 0.000000 -1.000000 0.000001
vn 0.855670 -0.517522 -0.000000
vn 0.855670 0.517522 -0.000001
vn 0.000000 1.000000 0.000000
vn -0.000002 -0.000001 -1.000000
vn -0.855669 0.517524 0.000000
vn -0.000000 -0.000000 1.000000
vn 0.000002 -0.000000 1.000000
vn 0.000001 -0.000000 1.000000
vn 0.855669 0.517524 -0.000001
vn 0.855670 0.517523 -0.000001
vn 0.855670 -0.517522 -0.000001
vn -0.000001 0.000000 -1.000000
vn -0.855670 -0.517521 0.000001
vn -0.855670 0.517522 0.000001
vn -0.000004 0.000000 -1.000000
vn 0.000001 0.000001 1.000000
vn -0.000000 -1.000000 -0.000000
vn 0.000003 -0.000002 1.000000
vn -0.855669 -0.517523 0.000003
vn -0.855670 0.517522 0.000003
vn 0.855670 0.517522 0.000000
vn 0.855669 -0.517523 -0.000000
vn 0.000000 -0.894788 -0.446492
vn -0.760257 -0.459814 -0.458890
vn -0.760257 0.459814 -0.458891
vn 0.000000 0.894786 -0.446495
vn 0.760255 0.459815 -0.458892
vn 0.760255 -0.459816 -0.458891
vn -0.760258 -0.459814 -0.458889
vn -0.000003 0.000000 -1.000000
vn -0.000001 -0.894787 -0.446494
vn -0.760257 0.459814 -0.458890
vn -0.000001 0.894786 -0.446496
vn 0.760255 0.459816 -0.458891
s off
f 1/1/1 2/2/1 3/3/1
f 1/1/2 4/4/2 5/5/2
f 1/6/3 6/7/3 7/8/3
f 2/2/4 1/1/4 7/9/4
f 7/8/5 6/7/5 8/10/5
f 8/11/6 2/2/6 7/9/6
f 8/11/7 9/2/7 10/12/7
f 8/10/3 11/13/3 12/14/3
f 12/9/7 9/2/7 8/11/7
f 12/14/3 11/13/3 13/15/3
f 13/1/8 9/2/8 12/9/8
f 13/1/9 4/4/9 14/3/9
f 13/15/10 15/16/10 5/17/10
f 5/5/9 4/4/9 13/1/9
f 15/16/3 1/6/3 5/17/3
f 4/4/11 1/1/11 3/3/11
f 2/18/12 4/19/12 3/20/12
f 10/12/6 2/2/6 8/11/6
f 10/21/13 14/22/13 2/18/13
f 9/23/14 14/22/14 10/21/14
f 14/3/15 9/2/15 13/1/15
f 4/19/13 2/18/13 14/22/13
f 6/7/3 1/6/3 16/24/3
f 6/25/9 17/26/9 18/27/9
f 16/24/3 1/6/3 15/16/3
f 16/28/16 19/29/16 6/25/16
f 15/16/5 13/15/5 20/30/5
f 15/31/17 19/29/17 16/28/17
f 20/30/18 13/15/18 11/13/18
f 20/29/6 21/28/6 15/32/6
f 11/13/3 8/10/3 18/33/3
f 11/34/4 21/28/4 20/29/4
f 18/33/10 8/10/10 6/7/10
f 18/26/2 17/27/2 11/34/2
f 22/34/16 6/25/16 19/29/16
f 22/35/3 23/36/3 17/37/3
f 22/34/9 17/26/9 6/25/9
f 19/29/7 15/31/7 23/32/7
f 19/38/3 23/36/3 22/35/3
f 23/31/6 15/32/6 21/28/6
f 21/28/19 11/34/19 24/25/19
f 21/39/3 17/37/3 23/36/3
f 24/25/20 11/34/20 17/27/20
f 24/40/21 17/37/21 21/39/21
f 25/41/22 26/42/22 27/43/22
f 25/44/23 28/45/23 29/46/23
f 27/43/24 30/47/24 31/48/24
f 27/49/25 28/45/25 25/44/25
f 31/50/26 32/51/26 27/49/26
f 30/47/22 27/43/22 26/42/22
f 30/44/9 32/52/9 31/46/9
f 26/42/24 25/41/24 29/53/24
f 26/49/27 33/54/27 30/44/27
f 29/50/28 33/54/28 26/49/28
f 28/45/25 27/49/25 34/54/25
f 28/45/29 35/55/29 36/52/29
f 34/54/26 27/49/26 32/51/26
f 34/54/30 37/56/30 28/45/30
f 32/52/9 30/44/9 38/45/9
f 32/51/31 37/56/31 34/54/31
f 38/45/27 30/44/27 33/54/27
f 38/45/32 39/57/32 32/52/32
f 33/54/28 29/50/28 36/51/28
f 33/54/33 39/57/33 38/45/33
f 36/52/23 29/46/23 28/45/23
f 36/51/34 35/58/34 33/54/34
f 40/57/35 28/45/35 37/56/35
f 40/59/36 41/60/36 35/61/36
f 40/57/37 35/55/37 28/45/37
f 37/56/38 32/51/38 41/58/38
f 37/62/3 41/60/3 40/59/3
f 41/55/39 32/52/39 39/57/39
f 39/57/40 33/54/40 42/56/40
f 39/63/36 35/61/36 41/60/36
f 42/56/34 33/54/34 35/58/34
f 42/64/3 35/61/3 39/63/3
