# Blender v2.69 (sub 0) OBJ File: ''
# www.blender.org
o Cube
v 1.000000 1.721123 -1.000000
v 1.000000 1.721123 1.000000
v -1.000000 1.721123 1.000000
v -1.000000 1.721123 -1.000000
v 1.000000 -1.721123 -0.999999
v 0.999999 -1.721123 1.000001
v -1.000000 -1.721123 1.000000
v -1.000000 -1.721123 -1.000000
v 1.000000 3.110991 -1.000000
v 1.000000 3.110991 1.000000
v -1.000000 3.110991 1.000000
v -1.000000 3.110991 -1.000000
v 1.000000 1.721123 -1.981187
v -0.999999 1.721123 -1.981187
v 1.000001 -1.721123 -1.981186
v -1.000000 -1.721123 -1.981187
v 0.783162 1.347917 -1.836300
v -0.783161 1.347917 -1.836300
v 0.783162 -1.347918 -1.836299
v -0.783161 -1.347918 -1.836300
v 0.794997 3.502411 -0.794997
v 0.794997 3.502411 0.794997
v -0.794997 3.502411 0.794997
v -0.794997 3.502411 -0.794997
vt 0.456475 0.568406
vt 0.684632 0.568406
vt 0.456475 0.660528
vt 0.228318 0.112095
vt 0.456474 0.112094
vt 0.228319 0.340250
vt 0.000162 0.568406
vt 0.000162 0.340250
vt 0.228319 0.568406
vt 0.456475 0.340250
vt 0.456473 0.000162
vt 0.055821 0.704503
vt 0.283977 0.704947
vt 0.079140 0.739477
vt 0.228319 0.660529
vt 0.777078 0.228319
vt 0.777079 0.456474
vt 0.684956 0.228319
vt 0.000162 0.660529
vt 0.406672 0.708664
vt 0.643597 0.707253
vt 0.437383 0.738302
vt 0.777077 0.000163
vt 0.889010 0.228318
vt 0.777078 0.684631
vt 0.889011 0.684632
vt 0.889011 0.456474
vt 0.613863 0.738120
vt 0.612885 0.914546
vt 0.406672 0.945595
vt 0.436406 0.914728
vt 0.643597 0.944184
vt 0.260170 0.921213
vt 0.078787 0.920860
vt 0.260523 0.739830
vt 0.043813 0.944179
vt 0.044257 0.716023
vt 0.295497 0.716512
vt 0.295053 0.944668
vt 0.283488 0.956187
vt 0.055332 0.955743
vt 0.684632 0.660528
vt 0.684631 0.340249
vt 0.228318 0.000163
vt 0.684957 0.456474
vt 0.889009 0.000162
vn 1.000000 0.000000 0.000000
vn 0.000000 1.000000 0.000000
vn -1.000000 -0.000000 0.000000
vn 0.000000 -0.000000 -1.000000
vn 0.885856 -0.463960 0.000000
vn -0.000000 0.000000 1.000000
vn -0.000000 -0.361907 0.932214
vn -0.000000 -1.000000 0.000000
vn -0.555570 0.000000 0.831470
vn 0.555571 0.000000 0.831469
vn -0.000000 0.361907 0.932214
vn 0.000000 -0.463960 -0.885856
vn -0.000000 -0.463960 0.885856
vn -0.885856 -0.463960 0.000000
vn -1.000000 0.000000 -0.000001
vn -0.555571 0.000000 0.831469
vn 0.000000 -0.463961 -0.885856
s off
f 3/1/1 4/2/1 11/3/1
f 5/4/2 8/5/2 6/6/2
f 1/7/3 5/8/3 2/9/3
f 2/9/4 6/6/4 3/1/4
f 3/1/1 7/10/1 4/2/1
f 8/5/2 5/4/2 16/11/2
f 11/12/5 12/13/5 23/14/5
f 2/9/4 3/1/4 10/15/4
f 4/16/6 1/17/6 12/18/6
f 1/7/3 2/9/3 9/19/3
f 16/20/7 15/21/7 20/22/7
f 4/16/1 8/23/1 14/24/1
f 5/25/3 1/17/3 15/26/3
f 1/17/8 4/16/8 13/27/8
f 19/28/6 17/29/6 20/22/6
f 14/30/9 16/20/9 18/31/9
f 15/21/10 13/32/10 19/28/10
f 13/32/11 14/30/11 17/29/11
f 21/33/8 22/34/8 24/35/8
f 10/36/12 11/37/12 22/34/12
f 12/38/13 9/39/13 24/35/13
f 9/40/14 10/41/14 21/33/14
f 4/2/1 12/42/1 11/3/1
f 8/5/2 7/10/2 6/6/2
f 5/8/15 6/6/15 2/9/15
f 6/6/4 7/10/4 3/1/4
f 7/10/1 8/43/1 4/2/1
f 5/4/2 15/44/2 16/11/2
f 12/13/5 24/35/5 23/14/5
f 3/1/4 11/3/4 10/15/4
f 1/17/6 9/45/6 12/18/6
f 2/9/3 10/15/3 9/19/3
f 15/21/7 19/28/7 20/22/7
f 8/23/1 16/46/1 14/24/1
f 1/17/3 13/27/3 15/26/3
f 4/16/8 14/24/8 13/27/8
f 17/29/6 18/31/6 20/22/6
f 16/20/16 20/22/16 18/31/16
f 13/32/10 17/29/10 19/28/10
f 14/30/11 18/31/11 17/29/11
f 22/34/8 23/14/8 24/35/8
f 11/37/17 23/14/17 22/34/17
f 9/39/13 21/33/13 24/35/13
f 10/41/14 22/34/14 21/33/14
