# Blender v2.69 (sub 0) OBJ File: ''
# www.blender.org
o Cube.001
v 0.336635 -1.000000 0.384470
v -0.336635 -1.000000 0.384469
v 0.336635 -1.269906 0.481452
v -0.336635 1.000000 -0.384470
v -0.336635 1.000000 0.384470
v 0.336635 1.000000 -0.384469
v -0.336635 -1.000000 -0.384470
v 0.336635 -1.000000 -0.384470
v 0.336635 1.000000 0.384470
v -0.336635 -1.269906 0.481452
v 0.336635 -1.542345 0.384470
v 0.336634 -1.269906 -0.481452
v -0.336636 -1.269906 -0.481452
v -0.336636 -1.542345 -0.384470
v 0.336634 -1.542345 -0.384470
v -0.336635 -1.542345 0.384469
vt 0.216191 0.852650
vt 0.216191 0.754615
vt 0.234300 0.852650
vt 0.020122 0.754615
vt 0.118156 0.754615
vt 0.020122 0.852650
vt 0.386843 0.754614
vt 0.484878 0.754614
vt 0.386843 0.852650
vt 0.350536 0.977271
vt 0.252499 0.879235
vt 0.350535 0.879235
vt 0.118157 0.852650
vt 0.350534 0.629995
vt 0.350535 0.728030
vt 0.252499 0.629995
vt 0.234300 0.754615
vt 0.252499 0.852650
vt 0.362900 0.866004
vt 0.252499 0.728030
vt 0.240135 0.741261
vt 0.368734 0.754615
vt 0.350535 0.754615
vt 0.350535 0.852650
vt 0.252499 0.754615
vt 0.240134 0.866004
vt 0.362899 0.741260
vt 0.368734 0.852650
vt 0.484878 0.852650
vt 0.252499 0.977271
vn -0.000001 0.338151 0.941092
vn 0.000000 1.000000 0.000000
vn -0.000001 0.000000 -1.000000
vn 1.000000 -0.000000 -0.000001
vn -0.000001 0.000000 1.000000
vn -1.000000 0.000000 0.000001
vn 0.000001 -0.335362 0.942089
vn -0.000001 0.338151 -0.941092
vn 0.000000 -1.000000 -0.000000
vn -0.000001 -0.335362 -0.942089
vn 0.000001 0.338154 0.941091
vn 0.000001 0.000000 -1.000000
vn 0.000001 -0.000000 1.000000
vn -0.000001 -0.335365 0.942088
s off
f 1/1/1 2/2/1 3/3/1
f 4/4/2 5/5/2 6/6/2
f 7/7/3 4/8/3 8/9/3
f 6/10/4 1/11/4 8/12/4
f 1/1/5 9/13/5 2/2/5
f 4/14/6 7/15/6 5/16/6
f 3/3/7 10/17/7 11/18/7
f 8/12/4 1/11/4 12/19/4
f 2/20/6 7/15/6 10/21/6
f 7/7/8 8/9/8 13/22/8
f 14/23/9 15/24/9 16/25/9
f 12/19/4 3/26/4 15/24/4
f 10/21/6 13/27/6 16/25/6
f 13/22/10 12/28/10 14/23/10
f 2/2/11 10/17/11 3/3/11
f 5/5/2 9/13/2 6/6/2
f 4/8/12 6/29/12 8/9/12
f 9/30/4 1/11/4 6/10/4
f 9/13/13 5/5/13 2/2/13
f 7/15/6 2/20/6 5/16/6
f 10/17/14 16/25/14 11/18/14
f 1/11/4 3/26/4 12/19/4
f 7/15/6 13/27/6 10/21/6
f 8/9/8 12/28/8 13/22/8
f 15/24/9 11/18/9 16/25/9
f 3/26/4 11/18/4 15/24/4
f 13/27/6 14/23/6 16/25/6
f 12/28/10 15/24/10 14/23/10
