# Blender v2.69 (sub 0) OBJ File: ''
# www.blender.org
o Cube.004
v 2.254918 -2.254918 -1.545965
v 2.254918 -2.254919 1.545964
v 0.000000 -2.254918 -1.545965
v 2.254918 0.000000 -1.545964
v 2.254916 2.254918 1.545967
v -2.254918 -2.254919 1.545964
v -2.254918 2.254918 1.545965
v -2.254916 2.254919 -1.545964
v -2.254916 0.000000 -1.545967
v 0.000000 0.000000 -1.545964
v 0.000002 0.128118 -2.001223
v 0.000002 2.126801 -2.001223
v -1.998683 2.126801 -2.001223
v 1.998685 2.126801 -2.001221
v 1.998683 0.128118 -2.001221
v 0.000000 2.254919 -1.545964
v 2.254918 2.254919 -1.545964
v -1.998683 0.128118 -2.001223
v 1.969225 2.600112 -1.389267
v 0.000000 2.600112 -1.389267
v 1.969223 2.600110 1.310922
v -1.969223 2.600112 -1.389267
v -1.969225 2.600110 1.310920
v -2.254916 -2.254918 -1.545967
vt 0.307821 0.084918
vt 0.307821 0.220179
vt 0.240191 0.083739
vt 0.375450 0.084918
vt 0.307821 0.355439
vt 0.172560 0.220179
vt 0.037301 0.220178
vt 0.037301 0.084918
vt 0.104931 0.084918
vt 0.525334 0.116977
vt 0.457970 0.116977
vt 0.525334 0.096774
vt 0.592699 0.116977
vt 0.240191 0.016099
vt 0.308416 0.016693
vt 0.525334 0.037064
vt 0.465625 0.037064
vt 0.585044 0.037064
vt 0.585044 0.096774
vt 0.525334 0.016861
vt 0.592699 0.016861
vt 0.457970 0.016861
vt 0.444362 0.100601
vt 0.444362 0.033237
vt 0.465625 0.096774
vt 0.606307 0.033237
vt 0.606307 0.100601
vt 0.299252 0.488153
vt 0.240191 0.488153
vt 0.299252 0.370030
vt 0.167690 0.495009
vt 0.167690 0.359748
vt 0.181128 0.488153
vt 0.172560 0.355439
vt 0.181130 0.370030
vt 0.307820 0.500570
vt 0.240191 0.500570
vt 0.312691 0.359748
vt 0.312691 0.495009
vt 0.172562 0.084918
vt 0.443081 0.084920
vt 0.443081 0.220179
vt 0.171966 0.016693
vt 0.172560 0.500570
vn 0.000000 -1.000000 -0.000000
vn 1.000000 -0.000000 0.000000
vn 0.000000 -0.000001 1.000000
vn -1.000000 -0.000000 -0.000001
vn 0.000000 -0.962609 -0.270895
vn 0.000000 0.000000 -1.000000
vn 0.000001 0.000000 -1.000000
vn 0.000000 0.962609 -0.270895
vn 0.000000 0.962609 -0.270894
vn -0.871452 0.000001 -0.490481
vn 0.871452 0.000000 -0.490481
vn 0.000000 1.000000 0.000001
vn -0.770377 0.637588 -0.000001
vn -0.000000 0.562824 0.826577
vn 0.000000 0.413344 -0.910575
vn 0.770378 0.637588 0.000001
vn 1.000000 0.000001 0.000001
vn -0.000001 -0.000000 1.000000
vn 0.000000 -0.962608 -0.270896
vn -0.871453 0.000000 -0.490479
vn 0.871450 -0.000001 -0.490485
vn -0.770374 0.637592 -0.000000
vn -0.000001 0.562825 0.826576
vn 0.000000 0.413345 -0.910575
vn 0.770374 0.637592 0.000001
s off
f 1/1/1 2/2/1 3/3/1
f 1/1/2 4/4/2 2/2/2
f 2/2/3 5/5/3 6/6/3
f 7/7/4 8/8/4 9/9/4
f 10/10/5 9/11/5 11/12/5
f 4/13/5 10/10/5 11/12/5
f 1/1/6 10/14/6 4/15/6
f 12/16/6 11/12/6 13/17/6
f 14/18/7 15/19/7 12/16/7
f 16/20/8 17/21/8 12/16/8
f 8/22/9 16/20/9 12/16/9
f 9/23/10 8/24/10 18/25/10
f 17/26/11 4/27/11 14/18/11
f 19/28/12 20/29/12 21/30/12
f 8/31/13 7/32/13 22/33/13
f 7/34/14 5/5/14 23/35/14
f 19/28/15 17/36/15 16/37/15
f 5/38/16 17/39/16 19/28/16
f 2/2/1 6/6/1 24/40/1
f 3/3/1 2/2/1 24/40/1
f 4/4/2 17/41/2 2/2/2
f 17/41/17 5/42/17 2/2/17
f 5/5/18 7/34/18 6/6/18
f 6/6/4 7/7/4 24/40/4
f 7/7/4 9/9/4 24/40/4
f 9/11/19 18/25/19 11/12/19
f 15/19/19 4/13/19 11/12/19
f 24/40/7 9/43/7 10/14/7
f 3/3/7 24/40/7 10/14/7
f 1/1/6 3/3/6 10/14/6
f 11/12/6 18/25/6 13/17/6
f 15/19/7 11/12/7 12/16/7
f 17/21/8 14/18/8 12/16/8
f 13/17/8 8/22/8 12/16/8
f 8/24/20 13/17/20 18/25/20
f 4/27/21 15/19/21 14/18/21
f 20/29/12 22/33/12 21/30/12
f 22/33/12 23/35/12 21/30/12
f 7/32/22 23/35/22 22/33/22
f 5/5/23 21/30/23 23/35/23
f 20/29/24 19/28/24 16/37/24
f 22/33/24 20/29/24 8/44/24
f 20/29/24 16/37/24 8/44/24
f 21/30/25 5/38/25 19/28/25
