# Blender v2.69 (sub 0) OBJ File: ''
# www.blender.org
o Cube.008
v -1.000003 -1.000000 -0.999997
v 0.999997 -1.000000 -1.000003
v -0.999998 -1.000000 1.000003
v -1.000001 1.000000 -0.999997
v -0.999997 1.000000 1.000003
v 0.999998 1.000000 -1.000002
v -0.906022 0.906018 -1.312959
v 1.000002 -1.000000 0.999997
v 1.000003 1.000000 0.999997
v 0.924726 0.924722 1.301266
v -1.309567 0.897070 0.897074
v -1.309569 0.897070 0.000005
v -0.906023 -0.906018 -1.312958
v 0.906013 -0.906018 -1.312964
v 0.906014 0.906018 -1.312964
v 0.924726 -0.924722 1.301266
v -0.924717 -0.924722 1.301272
v -0.924717 0.924722 1.301272
v -1.309569 0.000000 0.000005
v -1.309570 -0.897069 0.000005
v -1.309567 0.000000 0.897074
v -1.309571 0.897070 -0.897065
v -1.309572 -0.000000 -0.897065
v -1.309572 -0.897069 -0.897065
v -1.520649 0.813779 0.083295
v -1.525356 0.070056 -0.070051
v -1.525358 0.827014 -0.827009
v -1.525359 0.070056 -0.827009
v -1.525356 0.827014 -0.070051
v -1.520649 0.083291 0.083295
v -1.520647 0.813779 0.813784
v -1.520648 0.083291 0.813784
v -1.309567 -0.897069 0.897074
vt 0.791325 0.483818
vt 0.791325 0.629278
vt 0.645864 0.483818
vt 0.791325 0.920197
vt 0.645864 0.920197
vt 0.791325 0.774738
vt 0.960800 0.205122
vt 0.813910 0.205122
vt 0.953897 0.181011
vt 0.645864 0.629278
vt 0.812900 0.224419
vt 0.958360 0.224419
vt 0.818375 0.247003
vt 0.477909 0.507207
vt 0.486401 0.483818
vt 0.529700 0.546896
vt 0.953897 0.047315
vt 0.820813 0.047315
vt 0.796815 0.187946
vt 0.796815 0.040380
vt 0.820813 0.181011
vt 0.977897 0.040380
vt 0.977897 0.187946
vt 0.813910 0.023204
vt 0.960800 0.023205
vt 0.818375 0.381513
vt 0.952885 0.381513
vt 0.975470 0.241528
vt 0.975470 0.386989
vt 0.952885 0.247003
vt 0.795790 0.386989
vt 0.795790 0.241528
vt 0.958360 0.404098
vt 0.812900 0.404098
vt 0.717466 0.924248
vt 0.717466 0.989491
vt 0.652223 0.924248
vt 0.486398 0.938209
vt 0.477909 0.914824
vt 0.529695 0.875142
vt 0.581492 0.586586
vt 0.601867 0.572307
vt 0.601120 0.648807
vt 0.620751 0.711027
vt 0.645630 0.711028
vt 0.601115 0.773243
vt 0.953313 0.477565
vt 0.953313 0.562748
vt 0.931764 0.485473
vt 0.840605 0.643159
vt 0.942037 0.643145
vt 0.848530 0.668809
vt 0.782710 0.924248
vt 0.782710 0.989491
vt 0.934132 0.754390
vt 0.848542 0.754399
vt 0.934120 0.668800
vt 0.822889 0.762324
vt 0.822876 0.660892
vt 0.959771 0.660875
vt 0.959784 0.762307
vt 0.942057 0.780040
vt 0.840622 0.780054
vt 0.931764 0.554838
vt 0.862398 0.485473
vt 0.939673 0.576386
vt 0.854489 0.576386
vt 0.854489 0.463925
vt 0.939673 0.463925
vt 0.840852 0.562748
vt 0.840852 0.477565
vt 0.862400 0.554838
vt 0.645864 0.774738
vt 0.652223 0.989491
vt 0.601853 0.849739
vt 0.581481 0.835459
vn 0.000000 -1.000000 0.000000
vn -0.000000 1.000000 -0.000000
vn -0.000001 0.957748 -0.287610
vn 1.000000 -0.000000 -0.000003
vn 0.000001 0.970172 0.242416
vn -0.315510 0.948922 0.000001
vn -0.000003 -0.000001 -1.000000
vn 0.957746 -0.000000 -0.287614
vn -0.957748 0.000001 -0.287607
vn -0.000001 -0.957748 -0.287610
vn 0.000003 0.000000 1.000000
vn -0.970171 0.000000 0.242421
vn 0.970173 -0.000001 0.242413
vn 0.000001 -0.970172 0.242417
vn -1.000000 0.000001 0.000002
vn -0.315509 0.000000 0.948923
vn -0.315514 0.000000 -0.948921
vn -0.315514 -0.948921 0.000001
vn -0.367049 -0.000000 -0.930201
vn -0.308787 0.000000 0.951131
vn -1.000000 0.000000 0.000004
vn -1.000000 0.000001 0.000003
vn -0.308788 -0.951131 0.000001
vn -0.308788 0.951131 0.000001
vn -0.308789 0.000000 -0.951131
vn -1.000000 0.000000 0.000003
vn -0.367052 -0.930200 0.000001
vn -0.367052 0.930200 0.000001
vn -0.367046 0.000000 0.930203
vn 0.000001 0.970172 0.242417
vn -0.315511 0.948922 0.000000
vn -0.000003 -0.000000 -1.000000
vn 0.957746 -0.000001 -0.287615
vn -0.957750 0.000000 -0.287603
vn -0.000001 -0.957747 -0.287610
vn -0.970170 0.000000 0.242424
vn 0.970172 0.000000 0.242416
vn -0.315511 0.000000 0.948922
vn -0.315515 0.000000 -0.948921
vn -0.308790 0.000000 -0.951130
vn -1.000000 0.000001 0.000001
vn -0.367051 -0.930201 0.000001
vn -0.367052 0.930201 0.000001
vn -0.367048 0.000001 0.930202
s off
f 1/1/1 2/2/1 3/3/1
f 4/4/2 5/5/2 6/6/2
f 4/7/3 6/8/3 7/9/3
f 2/2/4 6/6/4 8/10/4
f 9/11/5 5/12/5 10/13/5
f 11/14/6 5/15/6 12/16/6
f 13/17/7 7/9/7 14/18/7
f 6/19/8 2/20/8 15/21/8
f 1/22/9 4/23/9 13/17/9
f 2/24/10 1/25/10 14/18/10
f 16/26/11 10/13/11 17/27/11
f 5/28/12 3/29/12 18/30/12
f 8/31/13 9/32/13 16/26/13
f 3/33/14 8/34/14 17/27/14
f 19/35/15 20/36/15 21/37/15
f 5/38/16 11/39/16 21/40/16
f 22/41/17 4/42/17 23/43/17
f 24/44/18 1/45/18 20/46/18
f 12/47/19 19/48/19 25/49/19
f 19/50/20 12/51/20 26/52/20
f 23/53/21 24/54/21 19/35/21
f 27/55/22 28/56/22 29/57/22
f 23/58/23 19/59/23 28/56/23
f 12/60/24 22/61/24 29/57/24
f 22/62/25 23/63/25 27/55/25
f 25/49/26 30/64/26 31/65/26
f 19/66/27 21/67/27 30/64/27
f 11/68/28 12/69/28 31/65/28
f 21/70/29 11/71/29 32/72/29
f 2/2/1 8/10/1 3/3/1
f 5/5/2 9/73/2 6/6/2
f 6/8/3 15/21/3 7/9/3
f 6/6/4 9/73/4 8/10/4
f 5/12/30 18/30/30 10/13/30
f 5/15/6 4/42/6 22/41/6
f 12/16/31 5/15/31 22/41/31
f 7/9/32 15/21/32 14/18/32
f 2/20/33 14/18/33 15/21/33
f 4/23/34 7/9/34 13/17/34
f 1/25/35 13/17/35 14/18/35
f 10/13/11 18/30/11 17/27/11
f 3/29/36 17/27/36 18/30/36
f 9/32/37 10/13/37 16/26/37
f 8/34/14 16/26/14 17/27/14
f 20/36/26 33/74/26 21/37/26
f 3/75/38 5/38/38 33/76/38
f 5/38/16 21/40/16 33/76/16
f 4/42/39 1/45/39 24/44/39
f 23/43/17 4/42/17 24/44/17
f 1/45/18 3/75/18 33/76/18
f 20/46/18 1/45/18 33/76/18
f 19/48/19 30/64/19 25/49/19
f 12/51/20 29/57/20 26/52/20
f 24/54/22 20/36/22 19/35/22
f 28/56/21 26/52/21 29/57/21
f 19/59/23 26/52/23 28/56/23
f 22/61/24 27/55/24 29/57/24
f 23/63/40 28/56/40 27/55/40
f 30/64/41 32/72/41 31/65/41
f 21/67/42 32/72/42 30/64/42
f 12/69/43 25/49/43 31/65/43
f 11/71/44 31/65/44 32/72/44
