# Blender v2.69 (sub 0) OBJ File: ''
# www.blender.org
o Cube.008
v 0.999996 -0.999999 -1.000005
v 1.000005 -0.999999 0.999995
v -1.000004 -1.000001 -0.999996
v 0.999995 1.000001 -1.000003
v -1.000005 0.999999 -0.999995
v 1.000003 1.000001 0.999996
v 1.312957 0.906019 -0.906025
v -0.999995 -1.000001 1.000004
v -0.999996 0.999999 1.000005
v -1.301265 0.924721 0.924729
v -0.897077 0.897069 -1.309565
v -0.000008 0.897070 -1.309569
v 1.312957 -0.906017 -0.906026
v 1.312966 -0.906017 0.906010
v 1.312965 0.906019 0.906011
v -1.301264 -0.924723 0.924729
v -1.301273 -0.924723 -0.924714
v -1.301274 0.924721 -0.924715
v -0.000008 -0.000000 -1.309569
v -0.000007 -0.897069 -1.309570
v -0.897077 -0.000001 -1.309565
v 0.897062 0.897071 -1.309573
v 0.897062 0.000001 -1.309574
v 0.897063 -0.897068 -1.309574
v -0.083298 0.813779 -1.520649
v 0.070048 0.070056 -1.525356
v 0.827006 0.827015 -1.525359
v 0.827006 0.070057 -1.525361
v 0.070047 0.827014 -1.525356
v -0.083298 0.083291 -1.520649
v -0.813787 0.813778 -1.520646
v -0.813787 0.083290 -1.520647
v -0.897076 -0.897070 -1.309565
vt 0.791325 0.483818
vt 0.791325 0.629278
vt 0.645864 0.483818
vt 0.791325 0.920197
vt 0.645864 0.920197
vt 0.791325 0.774738
vt 0.960800 0.205122
vt 0.813910 0.205122
vt 0.953897 0.181011
vt 0.645864 0.629278
vt 0.812900 0.224419
vt 0.958360 0.224419
vt 0.818375 0.247003
vt 0.477909 0.507207
vt 0.486401 0.483818
vt 0.529700 0.546896
vt 0.953897 0.047315
vt 0.820813 0.047315
vt 0.796815 0.187946
vt 0.796815 0.040380
vt 0.820813 0.181011
vt 0.977897 0.040380
vt 0.977897 0.187946
vt 0.813910 0.023204
vt 0.960800 0.023205
vt 0.818375 0.381513
vt 0.952885 0.381513
vt 0.975470 0.241528
vt 0.975470 0.386989
vt 0.952885 0.247003
vt 0.795790 0.386989
vt 0.795790 0.241528
vt 0.958360 0.404098
vt 0.812900 0.404098
vt 0.717466 0.924248
vt 0.717466 0.989491
vt 0.652223 0.924248
vt 0.486398 0.938209
vt 0.477909 0.914824
vt 0.529695 0.875142
vt 0.581492 0.586586
vt 0.601867 0.572307
vt 0.601120 0.648807
vt 0.620751 0.711027
vt 0.645630 0.711028
vt 0.601115 0.773243
vt 0.953313 0.477565
vt 0.953313 0.562748
vt 0.931764 0.485473
vt 0.840605 0.643159
vt 0.942037 0.643145
vt 0.848530 0.668809
vt 0.782710 0.924248
vt 0.782710 0.989491
vt 0.934132 0.754390
vt 0.848542 0.754399
vt 0.934120 0.668800
vt 0.822889 0.762324
vt 0.822876 0.660892
vt 0.959771 0.660875
vt 0.959784 0.762307
vt 0.942057 0.780040
vt 0.840622 0.780054
vt 0.931764 0.554838
vt 0.862398 0.485473
vt 0.939673 0.576386
vt 0.854489 0.576386
vt 0.854489 0.463925
vt 0.939673 0.463925
vt 0.840852 0.562748
vt 0.840852 0.477565
vt 0.862400 0.554838
vt 0.645864 0.774738
vt 0.652223 0.989491
vt 0.601853 0.849739
vt 0.581481 0.835459
vn 0.000001 -1.000000 0.000000
vn -0.000001 1.000000 0.000000
vn 0.287610 0.957747 -0.000001
vn 0.000005 -0.000000 1.000000
vn -0.242417 0.970172 0.000001
vn -0.000003 0.948922 -0.315511
vn 1.000000 0.000000 -0.000005
vn 0.287617 -0.000000 0.957745
vn 0.287604 0.000001 -0.957750
vn 0.287611 -0.957747 -0.000001
vn -1.000000 -0.000001 0.000005
vn -0.242424 0.000000 -0.970170
vn -0.242410 -0.000000 0.970174
vn -0.242416 -0.970172 0.000001
vn -0.000004 0.000001 -1.000000
vn -0.948923 -0.000000 -0.315507
vn 0.948920 0.000000 -0.315517
vn -0.000000 -0.948921 -0.315513
vn 0.930201 -0.000000 -0.367050
vn -0.951131 -0.000000 -0.308787
vn -0.000006 -0.000000 -1.000000
vn -0.000004 0.000003 -1.000000
vn -0.000001 -0.951131 -0.308788
vn -0.000002 0.951131 -0.308788
vn 0.951130 0.000000 -0.308791
vn -0.000004 -0.000000 -1.000000
vn -0.000001 -0.930201 -0.367052
vn -0.000003 0.930201 -0.367051
vn -0.930204 0.000000 -0.367043
vn 0.287610 0.957748 -0.000001
vn -0.242416 0.970172 0.000001
vn -0.000002 0.948922 -0.315510
vn -0.000002 0.948922 -0.315512
vn 1.000000 0.000001 -0.000005
vn 0.287618 -0.000000 0.957745
vn 0.287601 0.000000 -0.957750
vn -1.000000 -0.000000 0.000005
vn -0.242428 -0.000000 -0.970169
vn -0.242412 0.000000 0.970173
vn -0.242417 -0.970172 0.000001
vn -0.000005 -0.000000 -1.000000
vn -0.948923 -0.000000 -0.315508
vn -0.948925 -0.000001 -0.315503
vn 0.948920 0.000001 -0.315518
vn 0.948919 0.000001 -0.315520
vn -0.000001 -0.948921 -0.315513
vn 0.930201 -0.000000 -0.367049
vn -0.951133 -0.000001 -0.308782
vn -0.000005 0.000001 -1.000000
vn -0.000007 -0.000000 -1.000000
vn -0.000002 0.951130 -0.308790
vn 0.951131 0.000001 -0.308789
vn -0.000003 0.000001 -1.000000
vn 0.000000 -0.930202 -0.367049
vn -0.930203 0.000000 -0.367045
s off
f 1/1/1 2/2/1 3/3/1
f 4/4/2 5/5/2 6/6/2
f 4/7/3 6/8/3 7/9/3
f 2/2/4 6/6/4 8/10/4
f 9/11/5 5/12/5 10/13/5
f 11/14/6 5/15/6 12/16/6
f 13/17/7 7/9/7 14/18/7
f 6/19/8 2/20/8 15/21/8
f 1/22/9 4/23/9 13/17/9
f 2/24/10 1/25/10 14/18/10
f 16/26/11 10/13/11 17/27/11
f 5/28/12 3/29/12 18/30/12
f 8/31/13 9/32/13 16/26/13
f 3/33/14 8/34/14 17/27/14
f 19/35/15 20/36/15 21/37/15
f 5/38/16 11/39/16 21/40/16
f 22/41/17 4/42/17 23/43/17
f 24/44/18 1/45/18 20/46/18
f 12/47/19 19/48/19 25/49/19
f 19/50/20 12/51/20 26/52/20
f 23/53/21 24/54/21 19/35/21
f 27/55/22 28/56/22 29/57/22
f 23/58/23 19/59/23 28/56/23
f 12/60/24 22/61/24 29/57/24
f 22/62/25 23/63/25 27/55/25
f 25/49/26 30/64/26 31/65/26
f 19/66/27 21/67/27 30/64/27
f 11/68/28 12/69/28 31/65/28
f 21/70/29 11/71/29 32/72/29
f 2/2/1 8/10/1 3/3/1
f 5/5/2 9/73/2 6/6/2
f 6/8/30 15/21/30 7/9/30
f 6/6/4 9/73/4 8/10/4
f 5/12/31 18/30/31 10/13/31
f 5/15/32 4/42/32 22/41/32
f 12/16/33 5/15/33 22/41/33
f 7/9/34 15/21/34 14/18/34
f 2/20/35 14/18/35 15/21/35
f 4/23/36 7/9/36 13/17/36
f 1/25/10 13/17/10 14/18/10
f 10/13/37 18/30/37 17/27/37
f 3/29/38 17/27/38 18/30/38
f 9/32/39 10/13/39 16/26/39
f 8/34/40 16/26/40 17/27/40
f 20/36/41 33/74/41 21/37/41
f 3/75/42 5/38/42 33/76/42
f 5/38/43 21/40/43 33/76/43
f 4/42/44 1/45/44 24/44/44
f 23/43/45 4/42/45 24/44/45
f 1/45/46 3/75/46 33/76/46
f 20/46/46 1/45/46 33/76/46
f 19/48/47 30/64/47 25/49/47
f 12/51/48 29/57/48 26/52/48
f 24/54/49 20/36/49 19/35/49
f 28/56/50 26/52/50 29/57/50
f 19/59/23 26/52/23 28/56/23
f 22/61/51 27/55/51 29/57/51
f 23/63/52 28/56/52 27/55/52
f 30/64/53 32/72/53 31/65/53
f 21/67/54 32/72/54 30/64/54
f 12/69/28 25/49/28 31/65/28
f 11/71/55 31/65/55 32/72/55
