# Blender v2.69 (sub 0) OBJ File: ''
# www.blender.org
o Cube.004
v -2.254920 -2.254919 1.545963
v -2.254915 -2.254920 -1.545966
v -0.000002 -2.254918 1.545965
v -2.254920 -0.000000 1.545962
v -2.254914 2.254918 -1.545970
v 2.254920 -2.254919 -1.545961
v 2.254920 2.254919 -1.545963
v 2.254914 2.254920 1.545966
v 2.254914 0.000000 1.545969
v -0.000002 -0.000000 1.545964
v -0.000004 0.128118 2.001223
v -0.000005 2.126801 2.001223
v 1.998680 2.126801 2.001225
v -1.998688 2.126801 2.001218
v -1.998685 0.128118 2.001219
v -0.000002 2.254919 1.545964
v -2.254920 2.254919 1.545961
v 1.998681 0.128118 2.001225
v -1.969227 2.600112 1.389264
v -0.000002 2.600112 1.389266
v -1.969222 2.600110 -1.310925
v 1.969221 2.600112 1.389269
v 1.969226 2.600110 -1.310918
v 2.254914 -2.254918 1.545970
vt 0.307821 0.084918
vt 0.307821 0.220179
vt 0.240191 0.083739
vt 0.375450 0.084918
vt 0.307821 0.355439
vt 0.172560 0.220179
vt 0.037301 0.220178
vt 0.037301 0.084918
vt 0.104931 0.084918
vt 0.525334 0.116977
vt 0.457970 0.116977
vt 0.525334 0.096774
vt 0.592699 0.116977
vt 0.240191 0.016099
vt 0.308416 0.016693
vt 0.525334 0.037064
vt 0.465625 0.037064
vt 0.585044 0.037064
vt 0.585044 0.096774
vt 0.525334 0.016861
vt 0.592699 0.016861
vt 0.457970 0.016861
vt 0.444362 0.100601
vt 0.444362 0.033237
vt 0.465625 0.096774
vt 0.606307 0.033237
vt 0.606307 0.100601
vt 0.299252 0.488153
vt 0.240191 0.488153
vt 0.299252 0.370030
vt 0.167690 0.495009
vt 0.167690 0.359748
vt 0.181128 0.488153
vt 0.172560 0.355439
vt 0.181130 0.370030
vt 0.307820 0.500570
vt 0.240191 0.500570
vt 0.312691 0.359748
vt 0.312691 0.495009
vt 0.172562 0.084918
vt 0.443081 0.084920
vt 0.443081 0.220179
vt 0.171966 0.016693
vt 0.172560 0.500570
vn 0.000000 -1.000000 0.000000
vn -1.000000 -0.000000 -0.000001
vn 0.000001 -0.000001 -1.000000
vn 1.000000 0.000000 0.000002
vn -0.000000 -0.962609 0.270895
vn -0.000001 0.000000 1.000000
vn -0.000003 0.000000 1.000000
vn -0.000001 0.962609 0.270895
vn -0.000001 0.962609 0.270896
vn 0.871451 0.000001 0.490482
vn -0.871452 0.000000 0.490480
vn -0.000000 1.000000 -0.000001
vn 0.770376 0.637590 0.000001
vn 0.000001 0.562825 -0.826576
vn -0.000002 0.413347 0.910574
vn -0.770377 0.637588 -0.000002
vn -1.000000 0.000000 -0.000002
vn 0.000002 -0.000000 -1.000000
vn -0.000000 -0.962608 0.270897
vn -0.000002 0.000000 1.000000
vn -0.000000 0.962609 0.270895
vn 0.871453 0.000000 0.490480
vn -0.871451 -0.000001 0.490483
vn 0.000002 0.562824 -0.826577
vn -0.000001 0.413348 0.910573
vn -0.000002 0.413346 0.910574
vn -0.770376 0.637590 -0.000002
s off
f 1/1/1 2/2/1 3/3/1
f 1/1/2 4/4/2 2/2/2
f 2/2/3 5/5/3 6/6/3
f 7/7/4 8/8/4 9/9/4
f 10/10/5 9/11/5 11/12/5
f 4/13/5 10/10/5 11/12/5
f 1/1/6 10/14/6 4/15/6
f 12/16/6 11/12/6 13/17/6
f 14/18/7 15/19/7 12/16/7
f 16/20/8 17/21/8 12/16/8
f 8/22/9 16/20/9 12/16/9
f 9/23/10 8/24/10 18/25/10
f 17/26/11 4/27/11 14/18/11
f 19/28/12 20/29/12 21/30/12
f 8/31/13 7/32/13 22/33/13
f 7/34/14 5/5/14 23/35/14
f 19/28/15 17/36/15 16/37/15
f 5/38/16 17/39/16 19/28/16
f 2/2/1 6/6/1 24/40/1
f 3/3/1 2/2/1 24/40/1
f 4/4/2 17/41/2 2/2/2
f 17/41/17 5/42/17 2/2/17
f 5/5/18 7/34/18 6/6/18
f 6/6/4 7/7/4 24/40/4
f 7/7/4 9/9/4 24/40/4
f 9/11/19 18/25/19 11/12/19
f 15/19/19 4/13/19 11/12/19
f 24/40/20 9/43/20 10/14/20
f 3/3/20 24/40/20 10/14/20
f 1/1/6 3/3/6 10/14/6
f 11/12/6 18/25/6 13/17/6
f 15/19/20 11/12/20 12/16/20
f 17/21/9 14/18/9 12/16/9
f 13/17/21 8/22/21 12/16/21
f 8/24/22 13/17/22 18/25/22
f 4/27/23 15/19/23 14/18/23
f 20/29/12 22/33/12 21/30/12
f 22/33/12 23/35/12 21/30/12
f 7/32/13 23/35/13 22/33/13
f 5/5/24 21/30/24 23/35/24
f 20/29/25 19/28/25 16/37/25
f 22/33/26 20/29/26 8/44/26
f 20/29/25 16/37/25 8/44/25
f 21/30/27 5/38/27 19/28/27
