# Blender v2.69 (sub 0) OBJ File: ''
# www.blender.org
o Cube
v 1.000000 -1.000000 -1.000000
v 1.000000 -1.000000 1.000000
v -1.000000 -1.000000 1.000000
v -1.000000 -1.000000 -1.000000
v 1.000000 1.000000 -0.999999
v 0.999999 1.000000 1.000001
v -1.000000 1.000000 1.000000
v -1.000000 1.000000 -1.000000
v 1.312961 -0.906018 -0.906018
v 1.312961 -0.906018 0.906018
v 1.312962 0.906018 -0.906017
v 1.312961 0.906018 0.906019
v -1.301269 -0.924722 0.924721
v -1.301269 -0.924722 -0.924722
v -1.301269 0.924722 0.924721
v -1.301269 0.924722 -0.924722
v 0.897070 -0.897069 -1.309569
v -0.897069 -0.897069 -1.309570
v 0.897070 0.897070 -1.309569
v -0.897069 0.897070 -1.309570
v 0.000000 -0.897069 -1.309570
v 0.897070 0.000000 -1.309569
v -0.897069 0.000000 -1.309570
v 0.000000 0.897070 -1.309569
v 0.000000 0.000000 -1.309569
v 0.827014 0.827014 -1.525356
v 0.827014 0.070056 -1.525356
v 0.070056 0.827014 -1.525356
v 0.070056 0.070056 -1.525356
v -0.813779 0.813779 -1.520650
v -0.813779 0.083291 -1.520650
v -0.083290 0.813779 -1.520649
v -0.083290 0.083291 -1.520649
vt 0.810735 0.569854
vt 0.810735 0.687763
vt 0.692826 0.569854
vt 0.810735 0.923580
vt 0.692826 0.923580
vt 0.810735 0.805672
vt 0.949979 0.861048
vt 0.832070 0.861048
vt 0.944438 0.841783
vt 0.692826 0.687763
vt 0.831391 0.569854
vt 0.949300 0.569854
vt 0.835829 0.588161
vt 0.556683 0.588813
vt 0.563566 0.569854
vt 0.598664 0.620985
vt 0.944438 0.734956
vt 0.837611 0.734956
vt 0.818347 0.847324
vt 0.818347 0.729415
vt 0.837611 0.841783
vt 0.963703 0.729415
vt 0.963703 0.847324
vt 0.832070 0.715691
vt 0.949979 0.715692
vt 0.835829 0.697194
vt 0.944862 0.697194
vt 0.963169 0.583723
vt 0.963169 0.701632
vt 0.944862 0.588161
vt 0.817522 0.701632
vt 0.817522 0.583723
vt 0.949300 0.715501
vt 0.831391 0.715501
vt 0.750866 0.926863
vt 0.750866 0.979749
vt 0.697980 0.926863
vt 0.563564 0.938180
vt 0.556683 0.919224
vt 0.598660 0.887058
vt 0.640646 0.653157
vt 0.657162 0.641583
vt 0.656557 0.703593
vt 0.672469 0.754028
vt 0.692636 0.754029
vt 0.656553 0.804460
vt 0.965637 0.873928
vt 0.965637 0.926814
vt 0.952259 0.878838
vt 0.831437 0.865596
vt 0.884323 0.865589
vt 0.835569 0.878970
vt 0.803752 0.926863
vt 0.803752 0.979749
vt 0.880201 0.923591
vt 0.835575 0.923596
vt 0.880195 0.878965
vt 0.822200 0.927728
vt 0.822193 0.874842
vt 0.893569 0.874833
vt 0.893576 0.927719
vt 0.884333 0.936965
vt 0.831446 0.936972
vt 0.952259 0.921903
vt 0.909193 0.878838
vt 0.957169 0.935281
vt 0.904283 0.935281
vt 0.904283 0.865460
vt 0.957169 0.865460
vt 0.895816 0.926814
vt 0.895816 0.873928
vt 0.909194 0.921903
vt 0.692826 0.805672
vt 0.697980 0.979749
vt 0.657151 0.866467
vt 0.640637 0.854892
vn 0.000000 -1.000000 0.000000
vn 0.000000 1.000000 0.000000
vn 0.287611 0.957747 0.000000
vn 0.000000 -0.000000 1.000000
vn -0.242418 0.970172 0.000000
vn 0.000000 0.948922 -0.315512
vn 1.000000 -0.000000 0.000000
vn 0.287610 -0.000000 0.957748
vn 0.287611 0.000000 -0.957747
vn 0.287611 -0.957747 0.000000
vn -1.000000 0.000000 -0.000000
vn -0.242418 0.000000 -0.970172
vn -0.242418 0.000000 0.970172
vn -0.242418 -0.970172 0.000000
vn 0.000000 0.000000 -1.000000
vn -0.948922 -0.000000 -0.315512
vn 0.948922 -0.000000 -0.315512
vn 0.000000 -0.948922 -0.315512
vn 0.930201 -0.000000 -0.367050
vn -0.951131 0.000000 -0.308788
vn 0.000000 -0.951131 -0.308788
vn 0.000000 0.951131 -0.308788
vn 0.951131 -0.000000 -0.308788
vn 0.000000 -0.930201 -0.367050
vn 0.000000 0.930201 -0.367050
vn -0.930201 -0.000000 -0.367050
vn 0.287611 0.957748 0.000000
vn 0.000000 0.948921 -0.315512
vn 1.000000 0.000000 0.000001
vn 0.287612 0.000000 -0.957747
vn -0.242417 0.000000 -0.970172
vn -0.948921 -0.000000 -0.315513
vn 0.000000 -0.948921 -0.315513
vn 0.000001 0.000000 -1.000000
s off
f 1/1/1 2/2/1 4/3/1
f 5/4/2 8/5/2 6/6/2
f 5/7/3 6/8/3 11/9/3
f 2/2/4 6/6/4 3/10/4
f 7/11/5 8/12/5 15/13/5
f 20/14/6 8/15/6 24/16/6
f 9/17/7 11/9/7 10/18/7
f 6/19/8 2/20/8 12/21/8
f 1/22/9 5/23/9 9/17/9
f 2/24/10 1/25/10 10/18/10
f 13/26/11 15/13/11 14/27/11
f 8/28/12 4/29/12 16/30/12
f 3/31/13 7/32/13 13/26/13
f 4/33/14 3/34/14 14/27/14
f 25/35/15 21/36/15 23/37/15
f 8/38/16 20/39/16 23/40/16
f 19/41/17 5/42/17 22/43/17
f 17/44/18 1/45/18 21/46/18
f 24/47/19 25/48/19 32/49/19
f 25/50/20 24/51/20 29/52/20
f 22/53/15 17/54/15 25/35/15
f 26/55/15 27/56/15 28/57/15
f 22/58/21 25/59/21 27/56/21
f 24/60/22 19/61/22 28/57/22
f 19/62/23 22/63/23 26/55/23
f 32/49/15 33/64/15 30/65/15
f 25/66/24 23/67/24 33/64/24
f 20/68/25 24/69/25 30/65/25
f 23/70/26 20/71/26 31/72/26
f 2/2/1 3/10/1 4/3/1
f 8/5/2 7/73/2 6/6/2
f 6/8/27 12/21/27 11/9/27
f 6/6/4 7/73/4 3/10/4
f 8/12/5 16/30/5 15/13/5
f 8/15/28 5/42/28 19/41/28
f 24/16/6 8/15/6 19/41/6
f 11/9/29 12/21/29 10/18/29
f 2/20/8 10/18/8 12/21/8
f 5/23/30 11/9/30 9/17/30
f 1/25/10 9/17/10 10/18/10
f 15/13/11 16/30/11 14/27/11
f 4/29/31 14/27/31 16/30/31
f 7/32/13 15/13/13 13/26/13
f 3/34/14 13/26/14 14/27/14
f 21/36/15 18/74/15 23/37/15
f 4/75/32 8/38/32 18/76/32
f 8/38/16 23/40/16 18/76/16
f 5/42/17 1/45/17 17/44/17
f 22/43/17 5/42/17 17/44/17
f 1/45/18 4/75/18 18/76/18
f 21/46/33 1/45/33 18/76/33
f 25/48/19 33/64/19 32/49/19
f 24/51/20 28/57/20 29/52/20
f 17/54/15 21/36/15 25/35/15
f 27/56/15 29/52/15 28/57/15
f 25/59/21 29/52/21 27/56/21
f 19/61/22 26/55/22 28/57/22
f 22/63/23 27/56/23 26/55/23
f 33/64/34 31/72/34 30/65/34
f 23/67/24 31/72/24 33/64/24
f 24/69/25 32/49/25 30/65/25
f 20/71/26 30/65/26 31/72/26
