# Blender v2.69 (sub 0) OBJ File: ''
# www.blender.org
o Cube.001
v 1.330246 0.619211 -1.336976
v 1.330249 0.619211 1.297411
v 1.227009 0.012533 -1.234753
v 1.000001 1.185685 0.999999
v 0.999999 1.185685 -1.000001
v 0.739352 1.240239 0.739350
v -1.330246 0.619211 1.297414
v -0.999999 1.185685 1.000000
v -1.330250 0.619211 -1.336972
v -1.000000 1.185685 -1.000000
v -0.739350 1.240239 0.739352
v -0.739351 1.240239 -0.739351
v 0.739350 1.240239 -0.739352
v -1.227009 0.012533 1.195191
v -1.227013 0.012533 -1.234749
v 1.227012 0.012533 1.195187
v 0.653770 -0.089087 -8.782364
v -0.674340 -0.089087 -8.782362
v 0.430405 0.134276 -9.024199
v -0.674340 1.239023 -8.782362
v 0.653770 1.239023 -8.782364
v -0.450978 1.015659 -9.024198
v -0.450978 0.134276 -9.024197
v 0.430405 1.015659 -9.024199
v -0.372322 0.933445 -7.447710
v -0.372313 0.933446 -0.976562
v 0.344819 0.933445 -7.447711
v 0.344819 0.216303 -7.447711
v 0.344828 0.216304 -0.976562
v -0.372322 0.216303 -7.447710
v -0.674339 -0.089087 -7.454251
v 0.653771 -0.089087 -7.454253
v -0.419080 0.166172 -7.148685
v -0.372313 0.216304 -0.976562
v -0.674339 1.239023 -7.454251
v -0.419080 0.983764 -7.148685
v 0.344828 0.933446 -0.976563
v 0.653771 1.239023 -7.454253
v 0.398513 0.983764 -7.148686
v 0.398513 0.166172 -7.148686
vt 0.455026 0.292085
vt 0.455026 0.455400
vt 0.358794 0.298422
vt 0.546989 0.436962
vt 0.546990 0.312975
vt 0.565310 0.420804
vt 0.110430 0.455398
vt 0.018467 0.436961
vt 0.110430 0.292085
vt 0.220734 0.110138
vt 0.365194 0.202195
vt 0.200261 0.202195
vt 0.220734 0.636820
vt 0.200261 0.545288
vt 0.344720 0.636820
vt 0.236892 0.000147
vt 0.328562 0.000147
vt 0.236893 0.091817
vt 0.344721 0.110137
vt 0.328562 0.091817
vt 0.236892 0.655140
vt 0.018468 0.312975
vt 0.000147 0.329133
vt 0.206662 0.449062
vt 0.206662 0.298422
vt 0.358794 0.449062
vt 0.365194 0.545289
vt 0.810831 0.142103
vt 0.810831 0.083123
vt 0.838338 0.132183
vt 0.810831 0.351659
vt 0.810831 0.292679
vt 0.838338 0.341739
vt 0.810831 0.502236
vt 0.825451 0.476911
vt 0.838338 0.302598
vt 0.938266 0.341740
vt 0.430186 0.590382
vt 0.430187 0.991549
vt 0.385728 0.590382
vt 0.588145 0.590381
vt 0.588146 0.991548
vt 0.543687 0.590381
vt 0.751851 0.083123
vt 0.751851 0.142103
vt 0.719888 0.094459
vt 0.543688 0.991548
vt 0.751851 0.351659
vt 0.751851 0.502236
vt 0.734169 0.380599
vt 0.701646 0.590380
vt 0.701648 0.991548
vt 0.751851 0.292678
vt 0.719887 0.304014
vt 0.719887 0.340323
vt 0.627191 0.304015
vt 0.825451 0.267355
vt 0.734170 0.171043
vt 0.565310 0.329134
vt 0.328562 0.655141
vt 0.000147 0.420802
vt 0.838338 0.093042
vt 0.825451 0.376983
vt 0.938266 0.302598
vt 0.385729 0.991549
vt 0.719888 0.130767
vt 0.734169 0.473295
vt 0.627191 0.340323
vt 0.825451 0.167427
vt 0.734169 0.263738
vn 0.985829 -0.167756 -0.000001
vn 0.204862 0.978791 -0.000000
vn -0.863908 0.503649 0.000001
vn -0.000001 0.511244 -0.859435
vn 0.863908 0.503649 -0.000001
vn 0.000001 0.464852 0.885389
vn -0.000000 1.000000 -0.000000
vn -0.000000 0.978791 -0.204862
vn 0.000000 0.978791 0.204862
vn -0.204861 0.978791 0.000000
vn 0.000000 -1.000000 0.000000
vn -0.000001 -0.166154 -0.986100
vn 0.000001 -0.166155 0.986100
vn -0.985828 -0.167756 0.000001
vn -0.000001 -0.734606 -0.678494
vn 0.000000 0.734605 -0.678496
vn -0.734605 0.000000 -0.678495
vn -0.000002 -0.000001 -1.000000
vn 0.000001 -0.767454 0.641104
vn -1.000000 0.000000 0.000001
vn -0.767456 0.000000 0.641102
vn 1.000000 0.000000 -0.000001
vn 0.000001 0.767454 0.641104
vn 0.000001 0.000000 1.000000
vn 0.734602 0.000000 -0.678498
vn 0.767455 0.000000 0.641103
vn 0.204861 0.978791 -0.000000
vn -0.863908 0.503650 0.000001
vn -0.000001 0.511245 -0.859435
vn 0.863909 0.503648 -0.000001
vn 0.000001 0.464851 0.885389
vn -0.000000 0.978791 -0.204861
vn -0.204862 0.978791 -0.000000
vn 0.000001 -0.166154 0.986100
vn -0.985829 -0.167756 0.000001
vn -0.000002 -0.734604 -0.678496
vn -0.000002 0.734604 -0.678496
vn -0.734606 -0.000001 -0.678494
vn -0.000002 0.000000 -1.000000
vn -0.767454 0.000000 0.641104
vn 0.000000 0.000000 1.000000
vn 0.734602 0.000000 -0.678499
vn 0.767457 0.000000 0.641100
s off
f 1/1/1 2/2/1 3/3/1
f 4/4/2 5/5/2 6/6/2
f 7/7/3 8/8/3 9/9/3
f 10/10/4 1/11/4 9/12/4
f 1/1/5 5/5/5 4/4/5
f 8/13/6 7/14/6 4/15/6
f 11/16/7 6/17/7 12/18/7
f 5/19/8 10/10/8 13/20/8
f 8/13/9 4/15/9 11/21/9
f 10/22/10 8/8/10 12/23/10
f 14/24/11 15/25/11 16/26/11
f 9/12/12 1/11/12 15/25/12
f 2/27/13 7/14/13 16/26/13
f 7/7/14 9/9/14 14/24/14
f 17/28/15 18/29/15 19/30/15
f 20/31/16 21/32/16 22/33/16
f 18/34/17 20/31/17 23/35/17
f 22/33/18 24/36/18 23/37/18
f 25/38/7 26/39/7 27/40/7
f 28/41/11 29/42/11 30/43/11
f 31/44/19 32/45/19 33/46/19
f 26/39/20 25/38/20 34/47/20
f 35/48/21 31/49/21 36/50/21
f 27/51/22 37/52/22 28/41/22
f 38/53/23 35/48/23 39/54/23
f 39/54/24 36/55/24 40/56/24
f 20/31/7 35/48/7 21/32/7
f 17/28/11 32/45/11 18/29/11
f 21/32/25 17/28/25 24/57/25
f 35/48/20 20/31/20 31/49/20
f 32/45/26 38/53/26 40/58/26
f 21/32/22 38/53/22 17/28/22
f 2/2/1 16/26/1 3/3/1
f 5/5/27 13/59/27 6/6/27
f 8/8/28 10/22/28 9/9/28
f 5/19/29 1/11/29 10/10/29
f 2/2/30 1/1/30 4/4/30
f 7/14/31 2/27/31 4/15/31
f 6/17/7 13/20/7 12/18/7
f 10/10/32 12/18/32 13/20/32
f 4/15/9 6/60/9 11/21/9
f 8/8/33 11/61/33 12/23/33
f 15/25/11 3/3/11 16/26/11
f 1/11/12 3/3/12 15/25/12
f 7/14/34 14/24/34 16/26/34
f 9/9/35 15/25/35 14/24/35
f 18/29/36 23/62/36 19/30/36
f 21/32/37 24/36/37 22/33/37
f 20/31/38 22/63/38 23/35/38
f 24/36/39 19/64/39 23/37/39
f 26/39/7 37/65/7 27/40/7
f 29/42/11 34/47/11 30/43/11
f 32/45/19 40/66/19 33/46/19
f 25/38/20 30/43/20 34/47/20
f 31/49/40 33/67/40 36/50/40
f 37/52/22 29/42/22 28/41/22
f 35/48/23 36/55/23 39/54/23
f 36/55/41 33/68/41 40/56/41
f 35/48/7 38/53/7 21/32/7
f 32/45/11 31/44/11 18/29/11
f 17/28/42 19/69/42 24/57/42
f 20/31/20 18/34/20 31/49/20
f 38/53/43 39/70/43 40/58/43
f 38/53/22 32/45/22 17/28/22
