# Blender v2.63 (sub 0) OBJ File: ''
# www.blender.org
v 0.500000 -0.500000 -0.500000
v 0.500000 -0.500000 0.500000
v -0.500000 -0.500000 0.500000
v -0.500000 -0.500000 -0.500000
v 0.500000 0.500000 -0.500000
v 0.500000 0.500000 0.500000
v -0.500000 0.500000 0.500000
v -0.500000 0.500000 -0.500000
vn 0.577349 -0.577349 -0.577349
vn 0.577349 -0.577349 0.577349
vn -0.577349 -0.577349 0.577349
vn -0.577349 -0.577349 -0.577349
vn 0.577349 0.577349 -0.577349
vn -0.577349 0.577349 -0.577349
vn -0.577349 0.577349 0.577349
vn 0.577349 0.577349 0.577349
s 1
#top face
f 5//5 8//6 7//7
f 5//5 7//7 6//8
#Bottom face
f 1//1 2//2 3//3
f 1//1 3//3 4//4
#right face
f 1//1 5//5 6//8
f 1//1 6//8 2//2
#near face
f 2//2 6//8 7//7
f 2//2 7//7 3//3
#left face
f 3//3 7//7 8//6
f 3//3 8//6 4//4
#far face
f 5//5 1//1 4//4
f 5//5 4//4 8//6
